<svg width="4923" height="3788" viewBox="0 0 4923 3788" fill="none" xmlns="http://www.w3.org/2000/svg">
<g clip-path="url(#clip0_2_364)">
<path d="M506.481 0H0V506.417H506.481V0Z" fill="#DDDDDD"/>
<path d="M1058.55 0H552.065V506.417H1058.55V0Z" fill="#E4E4E4"/>
<path d="M1610.61 0H1104.13V506.417H1610.61V0Z" fill="#EBEBEB"/>
<path d="M2162.68 0H1656.19V506.417H2162.68V0Z" fill="#E4E4E4"/>
<path d="M2714.74 0H2208.26V506.417H2714.74V0Z" fill="#E4E4E4"/>
<path d="M3266.81 0H2760.32V506.417H3266.81V0Z" fill="#EBEBEB"/>
<path d="M3818.87 0H3312.39V506.417H3818.87V0Z" fill="#EBEBEB"/>
<path d="M4370.94 0H3864.45V506.417H4370.94V0Z" fill="#E4E4E4"/>
<path d="M4923 0H4416.52V506.417H4923V0Z" fill="#DDDDDD"/>
<path d="M506.481 546.931H0V1053.35H506.481V546.931Z" fill="#EBEBEB"/>
<path d="M1058.55 546.931H552.065V1053.35H1058.55V546.931Z" fill="black"/>
<path d="M1610.61 546.931H1104.13V1053.35H1610.61V546.931Z" fill="#EBEBEB"/>
<path d="M2162.68 546.931H1656.19V1053.35H2162.68V546.931Z" fill="#E4E4E4"/>
<path d="M2714.74 546.931H2208.26V1053.35H2714.74V546.931Z" fill="#EBEBEB"/>
<path d="M3266.81 546.931H2760.32V1053.35H3266.81V546.931Z" fill="black"/>
<path d="M3818.87 546.931H3312.39V1053.35H3818.87V546.931Z" fill="black"/>
<path d="M4370.94 546.931H3864.45V1053.35H4370.94V546.931Z" fill="black"/>
<path d="M4923 546.931H4416.52V1053.35H4923V546.931Z" fill="#EBEBEB"/>
<path d="M506.481 1093.86H0V1600.28H506.481V1093.86Z" fill="#EBEBEB"/>
<path d="M1058.55 1093.86H552.065V1600.28H1058.55V1093.86Z" fill="black"/>
<path d="M1610.61 1093.86H1104.13V1600.28H1610.61V1093.86Z" fill="#EBEBEB"/>
<path d="M2162.68 1093.86H1656.19V1600.28H2162.68V1093.86Z" fill="#E4E4E4"/>
<path d="M2714.74 1093.86H2208.26V1600.28H2714.74V1093.86Z" fill="#EBEBEB"/>
<path d="M3266.81 1093.86H2760.32V1600.28H3266.81V1093.86Z" fill="white"/>
<path d="M3818.87 1093.86H3312.39V1600.28H3818.87V1093.86Z" fill="white"/>
<path d="M4370.94 1093.86H3864.45V1600.28H4370.94V1093.86Z" fill="#EBEBEB"/>
<path d="M4923 1093.86H4416.52V1600.28H4923V1093.86Z" fill="#E4E4E4"/>
<path d="M506.481 1640.79H0V2147.21H506.481V1640.79Z" fill="#EBEBEB"/>
<path d="M1058.55 1640.79H552.065V2147.21H1058.55V1640.79Z" fill="black"/>
<path d="M1610.61 1640.79H1104.13V2147.21H1610.61V1640.79Z" fill="white"/>
<path d="M2162.68 1640.79H1656.19V2147.21H2162.68V1640.79Z" fill="#EBEBEB"/>
<path d="M2714.74 1640.79H2208.26V2147.21H2714.74V1640.79Z" fill="#EBEBEB"/>
<path d="M3266.81 1640.79H2760.32V2147.21H3266.81V1640.79Z" fill="black"/>
<path d="M3818.87 1640.79H3312.39V2147.21H3818.87V1640.79Z" fill="black"/>
<path d="M4370.94 1640.79H3864.45V2147.21H4370.94V1640.79Z" fill="black"/>
<path d="M4923 1640.79H4416.52V2147.21H4923V1640.79Z" fill="#EBEBEB"/>
<path d="M506.481 2187.72H0V2694.14H506.481V2187.72Z" fill="#EBEBEB"/>
<path d="M1058.55 2187.72H552.065V2694.14H1058.55V2187.72Z" fill="black"/>
<path d="M1610.61 2187.72H1104.13V2694.14H1610.61V2187.72Z" fill="#EBEBEB"/>
<path d="M2162.68 2187.72H1656.19V2694.14H2162.68V2187.72Z" fill="#E4E4E4"/>
<path d="M2714.74 2187.72H2208.26V2694.14H2714.74V2187.72Z" fill="#EBEBEB"/>
<path d="M3266.81 2187.72H2760.32V2694.14H3266.81V2187.72Z" fill="white"/>
<path d="M3818.87 2187.72H3312.39V2694.14H3818.87V2187.72Z" fill="white"/>
<path d="M4370.94 2187.72H3864.45V2694.14H4370.94V2187.72Z" fill="#EBEBEB"/>
<path d="M4923 2187.72H4416.52V2694.14H4923V2187.72Z" fill="#E4E4E4"/>
<path d="M506.481 2734.65H0V3241.07H506.481V2734.65Z" fill="#EBEBEB"/>
<path d="M1058.55 2734.65H552.065V3241.07H1058.55V2734.65Z" fill="black"/>
<path d="M1610.61 2734.65H1104.13V3241.07H1610.61V2734.65Z" fill="black"/>
<path d="M2162.68 2734.65H1656.19V3241.07H2162.68V2734.65Z" fill="black"/>
<path d="M2714.74 2734.65H2208.26V3241.07H2714.74V2734.65Z" fill="#EBEBEB"/>
<path d="M3266.81 2734.65H2760.32V3241.07H3266.81V2734.65Z" fill="black"/>
<path d="M3818.87 2734.65H3312.39V3241.07H3818.87V2734.65Z" fill="black"/>
<path d="M4370.94 2734.65H3864.45V3241.07H4370.94V2734.65Z" fill="black"/>
<path d="M4923 2734.65H4416.52V3241.07H4923V2734.65Z" fill="#EBEBEB"/>
<path d="M506.481 3281.58H0V3788H506.481V3281.58Z" fill="#DDDDDD"/>
<path d="M1058.55 3281.58H552.065V3788H1058.55V3281.58Z" fill="#EBEBEB"/>
<path d="M1610.61 3281.58H1104.13V3788H1610.61V3281.58Z" fill="#EBEBEB"/>
<path d="M2162.68 3281.58H1656.19V3788H2162.68V3281.58Z" fill="#EBEBEB"/>
<path d="M2714.74 3281.58H2208.26V3788H2714.74V3281.58Z" fill="#E4E4E4"/>
<path d="M3266.81 3281.58H2760.32V3788H3266.81V3281.58Z" fill="#EBEBEB"/>
<path d="M3818.87 3281.58H3312.39V3788H3818.87V3281.58Z" fill="#EBEBEB"/>
<path d="M4370.94 3281.58H3864.45V3788H4370.94V3281.58Z" fill="#EBEBEB"/>
<path d="M4923 3281.58H4416.52V3788H4923V3281.58Z" fill="#DDDDDD"/>
</g>
<defs>
<clipPath id="clip0_2_364">
<rect width="4923" height="3788" fill="white"/>
</clipPath>
</defs>
</svg>
