<svg width="4234" height="2533" viewBox="0 0 4234 2533" fill="none" xmlns="http://www.w3.org/2000/svg">
<path d="M2460.48 0H1954V506.417H2460.48V0Z" fill="black"/>
<path d="M2966.96 0H2460.48V506.417H2966.96V0Z" fill="black"/>
<path d="M3473.44 0.0693359H2966.96V506.486H3473.44V0.0693359Z" fill="black"/>
<path d="M3220.48 1013H2714V1519.42H3220.48V1013Z" fill="black"/>
<path d="M3726.96 1013H3220.48V1519.42H3726.96V1013Z" fill="black"/>
<path d="M4233.44 1013.07H3726.96V1519.49H4233.44V1013.07Z" fill="black"/>
<path d="M2714.48 2026H2208V2532.42H2714.48V2026Z" fill="black"/>
<path d="M3220.96 2026H2714.48V2532.42H3220.96V2026Z" fill="black"/>
<path d="M3727.44 2026.07H3220.96V2532.49H3727.44V2026.07Z" fill="black"/>
<path d="M506.481 0H0V506.417H506.481V0Z" fill="black"/>
<path d="M506.481 506.417H0V1012.83H506.481V506.417Z" fill="black"/>
<path d="M506.481 1012.83H0V1519.25H506.481V1012.83Z" fill="black"/>
<path d="M506.481 1519.25H0V2025.67H506.481V1519.25Z" fill="black"/>
<path d="M1012.48 2026H506V2532.42H1012.48V2026Z" fill="black"/>
<path d="M1518.96 2026H1012.48V2532.42H1518.96V2026Z" fill="black"/>
</svg>
