<svg width="3819" height="2695" viewBox="0 0 3819 2695" fill="none" xmlns="http://www.w3.org/2000/svg">
<path d="M2714.42 0H2207.94V506.417H2714.42V0Z" fill="black"/>
<path d="M3266.48 0H2760V506.417H3266.48V0Z" fill="black"/>
<path d="M3818.48 0.0693359H3312V506.486H3818.48V0.0693359Z" fill="black"/>
<path d="M2714.48 1094H2208V1600.42H2714.48V1094Z" fill="black"/>
<path d="M3266.55 1094H2760.06V1600.42H3266.55V1094Z" fill="black"/>
<path d="M3818.55 1094.07H3312.06V1600.49H3818.55V1094.07Z" fill="black"/>
<path d="M2713.48 2188H2207V2694.42H2713.48V2188Z" fill="black"/>
<path d="M3265.48 2188H2759V2694.42H3265.48V2188Z" fill="black"/>
<path d="M3817.48 2188.07H3311V2694.49H3817.48V2188.07Z" fill="black"/>
<path d="M506.481 0H0V506.417H506.481V0Z" fill="black"/>
<path d="M506.481 546.931H0V1053.35H506.481V546.931Z" fill="black"/>
<path d="M506.481 1093.86H0V1600.28H506.481V1093.86Z" fill="black"/>
<path d="M506.481 1640.79H0V2147.21H506.481V1640.79Z" fill="black"/>
<path d="M1058.55 2187.72H552.064V2694.14H1058.55V2187.72Z" fill="black"/>
<path d="M1610.61 2187.72H1104.13V2694.14H1610.61V2187.72Z" fill="black"/>
</svg>
